<?xml version="1.0" encoding="utf-8"?>
<!-- Generator: Adobe Illustrator 22.1.0, SVG Export Plug-In . SVG Version: 6.00 Build 0)  -->
<svg version="1.1" id="Layer_1" xmlns="http://www.w3.org/2000/svg" xmlns:xlink="http://www.w3.org/1999/xlink" x="0px" y="0px"
	 width="260px" height="136px" viewBox="0 0 260 136" style="enable-background:new 0 0 260 136;" xml:space="preserve">
<path d="M127.7,113.8c-0.1,0-0.3-0.1-0.4-0.2L87.4,73.8c-0.2-0.2-0.2-0.6,0-0.8l14.1-14.1L89.3,46.6c-0.1-0.1-0.2-0.2-0.2-0.4
	c0-0.1,0.1-0.3,0.2-0.4L129.2,6c0.1-0.1,0.2-0.2,0.4-0.2c0.1,0,0.3,0.1,0.4,0.2l39.9,39.9c0.1,0.1,0.2,0.2,0.2,0.4
	c0,0.1-0.1,0.3-0.2,0.4l-14.1,14.1L168,73c0.1,0.1,0.2,0.2,0.2,0.4c0,0.1-0.1,0.3-0.2,0.4l-39.9,39.9
	C128,113.8,127.8,113.8,127.7,113.8z M88.6,73.4l39.1,39.1l39.1-39.1L155,61.6l-25,25c-0.1,0.1-0.2,0.2-0.4,0.2
	c-0.1,0-0.3-0.1-0.4-0.2l-13.7-13.7c-0.1-0.1-0.2-0.2-0.2-0.4c0-0.1,0.1-0.3,0.2-0.4l7-7c0.1-0.1,0.2-0.2,0.4-0.2s0.3,0.1,0.4,0.2
	c0.2,0.2,0.2,0.6,0,0.8l-6.6,6.6l12.9,12.9l39.1-39.1L129.6,7.2l-39.1,39L102.3,58l25-25c0.1-0.1,0.2-0.2,0.4-0.2
	c0.1,0,0.3,0.1,0.4,0.2l13.7,13.7c0.2,0.2,0.2,0.6,0,0.8l-6.5,6.5c-0.1,0.1-0.2,0.2-0.4,0.2s-0.3-0.1-0.4-0.2
	c-0.1-0.1-0.2-0.2-0.2-0.4s0.1-0.3,0.2-0.4l6.1-6.1l-12.9-12.9L88.6,73.4z"/>
<g>
	<path d="M87.6,131.8v-6.7h1.2v5.7h3.1v1H87.6z"/>
	<path d="M95.6,131.4c-0.5-0.3-0.8-0.7-1.1-1.2c-0.3-0.5-0.4-1.1-0.4-1.8s0.1-1.3,0.4-1.8s0.6-0.9,1.1-1.2c0.5-0.3,1-0.4,1.7-0.4
		c0.6,0,1.2,0.1,1.7,0.4s0.8,0.7,1.1,1.2c0.3,0.5,0.4,1.1,0.4,1.8c0,0.7-0.1,1.3-0.4,1.8s-0.6,0.9-1.1,1.2s-1,0.4-1.7,0.4
		C96.7,131.9,96.1,131.7,95.6,131.4z M98.8,130.3c0.3-0.4,0.5-1,0.5-1.8s-0.2-1.4-0.5-1.8s-0.8-0.6-1.4-0.6s-1.1,0.2-1.4,0.6
		s-0.5,1-0.5,1.8s0.2,1.4,0.5,1.8c0.3,0.4,0.8,0.6,1.4,0.6C97.9,130.9,98.4,130.7,98.8,130.3z"/>
	<path d="M109.1,131.8h-1.3l-0.9-2.2c-0.1-0.2-0.2-0.3-0.3-0.4c-0.2-0.1-0.4-0.1-0.6-0.1h-1.2v2.8h-1.2v-6.7h2.9
		c0.8,0,1.3,0.2,1.7,0.5c0.4,0.3,0.6,0.8,0.6,1.4c0,0.4-0.1,0.8-0.4,1.1c-0.2,0.3-0.6,0.5-1,0.7c0.4,0.1,0.7,0.4,0.9,0.8
		L109.1,131.8z M106.3,128.1c0.5,0,0.8-0.1,1-0.3s0.3-0.4,0.3-0.8c0-0.3-0.1-0.6-0.3-0.8c-0.2-0.2-0.6-0.2-1-0.2h-1.5v2h1.5V128.1z"
		/>
	<path d="M112.1,131.8v-6.7h4.5v1h-3.3v1.8h3.1v1h-3.1v2h3.3v1h-4.5V131.8z"/>
	<path d="M125.1,125.1h1v6.7H125v-4.1l-1.8,4.1h-0.8l-1.8-4.1v4.1h-1.1v-6.7h1l2.3,5.2L125.1,125.1z"/>
	<path d="M133.8,131.8v-6.7h1.2v6.7H133.8z"/>
	<path d="M138.3,125.1h2.9c0.7,0,1.3,0.2,1.7,0.5s0.6,0.8,0.6,1.4s-0.2,1.1-0.6,1.4c-0.4,0.4-1,0.5-1.7,0.5h-1.7v2.8h-1.2V125.1z
		 M141.1,128.1c0.4,0,0.7-0.1,1-0.3c0.2-0.2,0.3-0.4,0.3-0.7c0-0.3-0.1-0.6-0.3-0.8c-0.2-0.2-0.5-0.3-1-0.3h-1.5v2h1.5V128.1z"/>
	<path d="M147.2,131.7c-0.4-0.1-0.8-0.3-1.1-0.6l0.4-0.9c0.3,0.2,0.7,0.4,1,0.5c0.4,0.1,0.7,0.2,1.2,0.2s0.8-0.1,1.1-0.2
		c0.3-0.2,0.4-0.4,0.4-0.7c0-0.2-0.1-0.4-0.4-0.6c-0.2-0.1-0.6-0.3-1.2-0.4c-0.8-0.2-1.4-0.4-1.8-0.7c-0.4-0.3-0.6-0.7-0.6-1.3
		c0-0.4,0.1-0.7,0.3-1s0.5-0.5,0.9-0.7s0.8-0.3,1.4-0.3c0.5,0,0.9,0.1,1.3,0.2c0.4,0.1,0.8,0.3,1,0.6l-0.4,0.9
		c-0.6-0.5-1.2-0.7-2-0.7c-0.4,0-0.8,0.1-1,0.3c-0.3,0.2-0.4,0.4-0.4,0.7c0,0.3,0.1,0.5,0.3,0.6s0.6,0.3,1.1,0.4
		c0.6,0.1,1,0.3,1.4,0.4c0.4,0.2,0.6,0.4,0.8,0.6c0.2,0.2,0.3,0.5,0.3,0.9s-0.1,0.7-0.3,1s-0.5,0.5-0.9,0.7s-0.9,0.2-1.4,0.2
		C148.2,131.9,147.7,131.8,147.2,131.7z"/>
	<path d="M155,131.2c-0.5-0.5-0.7-1.2-0.7-2.1v-4h1.2v4c0,0.6,0.1,1,0.4,1.3c0.3,0.3,0.7,0.4,1.2,0.4s0.9-0.1,1.2-0.4
		c0.3-0.3,0.4-0.7,0.4-1.3v-4h1.2v4c0,0.9-0.2,1.6-0.7,2.1s-1.2,0.7-2.1,0.7C156.2,131.9,155.5,131.6,155,131.2z"/>
	<path d="M168.7,125.1h1v6.7h-1.1v-4.1l-1.8,4.1H166l-1.8-4.1v4.1h-1.1v-6.7h1l2.3,5.2L168.7,125.1z"/>
</g>
</svg>
