<?xml version="1.0" encoding="utf-8"?>
<!-- Generator: Adobe Illustrator 22.1.0, SVG Export Plug-In . SVG Version: 6.00 Build 0)  -->
<svg version="1.1" id="Layer_1" xmlns="http://www.w3.org/2000/svg" xmlns:xlink="http://www.w3.org/1999/xlink" x="0px" y="0px"
	 width="260px" height="136px" viewBox="0 0 260 136" style="enable-background:new 0 0 260 136;" xml:space="preserve">
<path d="M102.3,99.5c-0.2,0-0.5-0.1-0.6-0.3c-0.1-0.2-0.1-0.5,0-0.7L105,93l39.2-63.9c0.1-0.2,0.3-0.3,0.6-0.3c0.1,0,0.3,0,0.4,0.1
	c0.3,0.2,0.4,0.6,0.2,0.9l-21.2,34.6l51.9-0.5l6.8-11.7l-26.7-46h-53.5L76,52.2l22.9,39.3c0.2,0.3,0.1,0.7-0.2,0.9
	c-0.1,0.1-0.2,0.1-0.3,0.1c-0.2,0-0.5-0.1-0.6-0.3L74.6,52.6c-0.1-0.2-0.1-0.5,0-0.7l27.1-46.7c0.1-0.2,0.3-0.3,0.6-0.3h54.2
	c0.2,0,0.5,0.1,0.6,0.3l27.1,46.7c0.1,0.2,0.1,0.5,0,0.7l-27.1,46.7c-0.1,0.2-0.3,0.3-0.6,0.3h-54.2V99.5z M123.4,65.7l-17.2,28.1
	l-2.7,4.4h52.7l19.2-33L123.4,65.7z"/>
<g>
	<path d="M75.2,134.5v-8.9h1.3v7.9h4.4v1.1h-5.7V134.5z"/>
	<path d="M85.7,134c-0.6-0.4-1.1-0.9-1.4-1.6s-0.5-1.5-0.5-2.4s0.2-1.8,0.5-2.4c0.4-0.7,0.8-1.3,1.4-1.6s1.3-0.5,2.2-0.5
		s1.6,0.2,2.2,0.5s1.1,0.9,1.4,1.6c0.3,0.7,0.5,1.5,0.5,2.4s-0.2,1.8-0.5,2.4c-0.4,0.7-0.8,1.3-1.4,1.6c-0.6,0.4-1.3,0.5-2.2,0.5
		S86.4,134.4,85.7,134z M90,132.6c0.5-0.6,0.7-1.5,0.7-2.6c0-1.2-0.3-2-0.7-2.6c-0.5-0.6-1.2-0.9-2.1-0.9s-1.6,0.3-2.1,0.9
		s-0.7,1.4-0.7,2.6s0.3,2,0.7,2.6c0.4,0.6,1.2,0.9,2.1,0.9S89.5,133.2,90,132.6z"/>
	<path d="M103.5,134.5h-1.3l-1.1-2.9c-0.1-0.4-0.3-0.5-0.5-0.6c-0.3-0.1-0.5-0.2-0.9-0.2h-2v3.8h-1.3v-8.9h3.7c1,0,1.7,0.2,2.2,0.6
		s0.8,1.1,0.8,1.9c0,0.6-0.2,1.1-0.4,1.5c-0.3,0.4-0.7,0.7-1.3,0.9c0.5,0.1,0.9,0.4,1.2,1.1L103.5,134.5z M99.8,129.6
		c0.6,0,1.2-0.1,1.4-0.4c0.4-0.3,0.4-0.6,0.4-1.2c0-0.5-0.2-0.9-0.4-1.2c-0.3-0.3-0.8-0.4-1.4-0.4h-2.2v3h2.2V129.6z"/>
	<path d="M107.6,134.5v-8.9h5.8v1.1H109v2.8h4.3v1.1H109v2.9h4.5v1.1h-5.9V134.5z"/>
	<path d="M124.9,125.5h1.1v8.9h-1.2v-6.1l-2.7,6.1h-0.9l-2.7-6.1v6.1h-1.2v-8.9h1.1l3.2,7.3L124.9,125.5z"/>
	<path d="M136.4,134.5v-8.9h1.3v8.9H136.4z"/>
	<path d="M142.3,125.5h3.7c0.9,0,1.7,0.3,2.1,0.7c0.4,0.4,0.8,1.1,0.8,1.9c0,0.8-0.3,1.4-0.8,1.9s-1.3,0.7-2.1,0.7h-2.4v3.8h-1.3
		V125.5L142.3,125.5z M145.8,129.6c0.6,0,1.1-0.1,1.4-0.4c0.3-0.3,0.4-0.6,0.4-1.2c0-0.4-0.2-0.9-0.4-1.1c-0.4-0.3-0.8-0.4-1.4-0.4
		h-2.2v3L145.8,129.6L145.8,129.6z"/>
	<path d="M154.1,134.3c-0.5-0.2-1.1-0.4-1.5-0.8l0.4-1c0.4,0.4,0.9,0.6,1.3,0.8c0.4,0.2,1,0.3,1.6,0.3s1.2-0.1,1.5-0.4
		c0.4-0.3,0.5-0.6,0.5-1.1c0-0.4-0.2-0.7-0.5-0.9s-0.9-0.4-1.6-0.5c-0.7-0.2-1.3-0.4-1.7-0.5c-0.4-0.2-0.8-0.4-1.1-0.8
		c-0.3-0.4-0.4-0.7-0.4-1.3c0-0.5,0.2-1,0.4-1.3c0.3-0.4,0.6-0.7,1.2-0.9c0.5-0.2,1.1-0.4,1.8-0.4c0.6,0,1.3,0.1,1.8,0.3
		c0.5,0.2,1,0.4,1.3,0.8l-0.4,1c-0.4-0.4-0.8-0.6-1.3-0.7c-0.4-0.2-0.9-0.3-1.4-0.3c-0.6,0-1.2,0.2-1.5,0.4
		c-0.4,0.3-0.5,0.6-0.5,1.1c0,0.4,0.2,0.7,0.4,0.9c0.4,0.2,0.8,0.4,1.5,0.5c0.7,0.2,1.3,0.4,1.8,0.5c0.4,0.2,0.8,0.4,1.1,0.7
		c0.3,0.4,0.4,0.7,0.4,1.3s-0.2,1-0.4,1.3c-0.3,0.4-0.6,0.7-1.2,0.9c-0.5,0.2-1.1,0.4-1.8,0.4S154.6,134.5,154.1,134.3z"/>
	<path d="M164.3,133.6c-0.6-0.6-0.9-1.5-0.9-2.7v-5.4h1.3v5.4c0,0.8,0.2,1.4,0.6,1.9c0.4,0.4,1,0.6,1.8,0.6s1.3-0.2,1.8-0.6
		c0.4-0.4,0.6-1.1,0.6-1.9v-5.4h1.3v5.4c0,1.2-0.3,2.1-0.9,2.7c-0.6,0.6-1.5,0.9-2.7,0.9C165.8,134.6,164.9,134.2,164.3,133.6z"/>
	<path d="M182.6,125.5h1.1v8.9h-1.2v-6.1l-2.7,6.1H179l-2.7-6.1v6.1h-1.2v-8.9h1.1l3.2,7.3L182.6,125.5z"/>
</g>
</svg>
