<?xml version="1.0" encoding="utf-8"?>
<!-- Generator: Adobe Illustrator 22.1.0, SVG Export Plug-In . SVG Version: 6.00 Build 0)  -->
<svg version="1.1" id="Layer_1" xmlns="http://www.w3.org/2000/svg" xmlns:xlink="http://www.w3.org/1999/xlink" x="0px" y="0px"
	 width="260px" height="136px" viewBox="0 0 260 136" style="enable-background:new 0 0 260 136;" xml:space="preserve">
<path d="M136.5,100.5c-1.2,0-2.5-0.1-3.7-0.2h-0.1h-0.1c-1.3,0.1-2.6,0.2-3.8,0.2c-10.8,0-23.5-5.5-37.8-16.4
	c-10.5-8-18.2-16.3-18.2-16.4c-0.2-0.2-0.2-0.6,0-0.8c0.1-0.1,7.6-8.7,18.2-17.1C104.4,39.3,116.4,34,126.7,34c0.7,0,1.4,0,2.1,0.1
	c1.2,0.1,2.4,0.2,3.7,0.5h0.3l0.2-0.1c0.1,0,0.2-0.1,0.2-0.1c0.8-0.1,1.5-0.1,2.3-0.1c11,0,23.7,5.3,37.7,15.6
	c10.9,8.1,18.8,16.6,19.2,16.9c0.2,0.2,0.2,0.6,0,0.9c-0.1,0.1-8.2,8.3-19,16.3C158.9,94.9,146.5,100.5,136.5,100.5z M103.8,68.7
	C104.5,84,116.9,97,132.6,99h0.1h0.1c16.6-2,29.6-15.9,29.6-31.7c0-18.5-17.1-30.7-33.6-31.9c-0.7,0-1.3-0.1-2-0.1
	c-22.2,0-47.4,26.2-52.2,31.5l-0.5,0.5l0.5,0.5c4.1,4.2,25.5,25.5,46,30.4l0.5-1.5c-11.3-5.8-18.6-17.3-18.6-29.5
	c0-0.3,0.3-0.6,0.6-0.6h25.8c0.3,0,0.6,0.3,0.6,0.6s-0.3,0.6-0.6,0.6h-25.2L103.8,68.7z M143.6,38.1c12.5,6,20,16.9,20,29.2
	c0,11.9-6.9,23-18.1,29l0.6,1.4c19.1-5.7,40.5-25.9,44.6-29.9l0.6-0.5l-0.5-0.6c-4-4.2-25.3-25.2-46.5-30.1L143.6,38.1z"/>
<g>
	<path d="M119,14.5v-3.3h0.3c0.5,1.4,1.5,3,3.3,3c1.3,0,2.2-0.7,2.2-1.9c0-2.7-5.6-1.8-5.6-5.8c0-1.8,1.5-2.8,3.1-2.8
		c0.8,0,1.6,0.3,2.1,0.8l1.1-0.8h0.2v3.2h-0.3c-0.6-1.7-1.6-2.8-3-2.8c-1.1,0-1.8,0.6-1.8,1.6c0,2.4,5.6,1.8,5.6,5.7
		c0,2-1.5,3.2-3.5,3.2c-1,0-1.8-0.4-2.4-1l-1.1,0.9C119.2,14.5,119,14.5,119,14.5z"/>
	<path d="M131,14.1v-10h-1.5V3.8h5.4v0.3h-1.7V14h1.7v0.3h-5.4V14h1.5V14.1z"/>
	<path d="M141.8,14.1v-10h-0.9c-1.5,0-2,1.3-2.2,3.1h-0.3V3.8h9v3.4h-0.3c-0.2-1.8-0.7-3.1-2.2-3.1H144V14h1.5v0.3h-5.3V14h1.6V14.1
		z"/>
</g>
<g>
	<path d="M106.1,130.7v-0.2h1.1v-8.8h-1.1v-0.2h3.9c2.9,0,4.7,1.9,4.7,4.6c0,2.8-1.9,4.6-4.7,4.6H106.1z M109.1,121.7v8.8h0.9
		c1.9,0,2.5-1.9,2.5-4.4c0-2.4-0.7-4.4-2.5-4.4H109.1z"/>
	<path d="M118.3,126.1c0-2.7,1.7-4.7,4.2-4.7s4.2,2.1,4.2,4.7c0,2.7-1.6,4.7-4.2,4.7S118.3,128.8,118.3,126.1z M120.5,126.1
		c0,2.6,0.3,4.5,2,4.5s2-2,2-4.5c0-2.6-0.5-4.5-2-4.5C120.9,121.5,120.5,123.5,120.5,126.1z"/>
	<path d="M129.7,130.7v-0.2h1.1v-8.8h-1.1v-0.2h4.1v0.2h-1.1v8.8h1.3c1.8,0,2.4-1,2.6-2.5h0.2v2.8h-7.1V130.7z"/>
	<path d="M139.9,126.1c0-2.7,1.7-4.7,4.2-4.7s4.2,2.1,4.2,4.7c0,2.7-1.6,4.7-4.2,4.7C141.4,130.8,139.9,128.8,139.9,126.1z
		 M142,126.1c0,2.6,0.3,4.5,2,4.5s2-2,2-4.5c0-2.6-0.5-4.5-2-4.5C142.5,121.5,142,123.5,142,126.1z"/>
	<path d="M152.4,130.5v-8.8h-1.2v-0.2h4.3c2,0,3.5,0.7,3.5,2.3c0,1.4-1,2.1-2.6,2.2c3.8,0.1,1.5,4.5,3,4.5c0.3,0,0.4,0,0.6-0.1
		l0.1,0.2c-0.2,0.1-0.8,0.2-1.5,0.2c-3.4,0-0.3-4.7-3.3-4.7h-0.9v4.4h1.2v0.2h-4.4v-0.2L152.4,130.5L152.4,130.5z M154.3,121.7v4.1
		h0.9c1.2,0,1.8-0.6,1.8-2.1s-0.6-2-1.8-2H154.3z"/>
</g>
</svg>
