<?xml version="1.0" encoding="utf-8"?>
<!-- Generator: Adobe Illustrator 22.1.0, SVG Export Plug-In . SVG Version: 6.00 Build 0)  -->
<svg version="1.1" id="Layer_1" xmlns="http://www.w3.org/2000/svg" xmlns:xlink="http://www.w3.org/1999/xlink" x="0px" y="0px"
	 width="260px" height="136px" viewBox="0 0 260 136" style="enable-background:new 0 0 260 136;" xml:space="preserve">
<path d="M133.7,89.8c-0.2,0-0.4-0.1-0.5-0.2L79.1,32.1l0,0c0,0,0,0,0-0.1C79,32,79,31.9,79,31.9v-0.1c0-0.1,0-0.1,0-0.2v-0.1
	c0-0.1,0-0.1,0.1-0.2L93,7c0.1-0.2,0.3-0.3,0.6-0.3h7.4c0.4,0,0.7,0.3,0.7,0.7S101.3,8,101,8h-7L81,30.7L141.9,17l-26.6-9l-0.1-0.1
	L115,7.8l-0.2-0.2V7.4V7.3l0,0c0-0.1,0-0.1,0-0.2l0.1-0.2l0.2-0.2h0.1h0.1h0.1l0,0h56.3c0.2,0,0.4,0.1,0.6,0.3l15.5,24.3v0.1
	c0.1,0.2,0.1,0.2,0.1,0.2c0,0.1,0,0.2,0,0.2v0.1c-0.1,0.1-0.1,0.1-0.1,0.2l-0.1,0.1l-53.6,57.3C134.1,89.7,133.9,89.8,133.7,89.8
	L133.7,89.8z M80.9,32.1l52.8,56L186.2,32l-41.8-14.2L80.9,32.1z M124.3,9.6l61.4,20.8L171.4,8h-46.8L124.3,9.6z"/>
<g>
	<path d="M95.4,118.1v-0.2h1.1v-8.7h-1.1V109h3.9c2.9,0,4.6,1.9,4.6,4.6s-1.9,4.6-4.6,4.6h-3.9V118.1z M98.4,109.1v8.7h0.9
		c1.9,0,2.5-1.9,2.5-4.3s-0.7-4.3-2.5-4.3L98.4,109.1L98.4,109.1z"/>
	<path d="M108.2,117.8v-8.7h-1.3v-0.2h4.7v0.2h-1.5v8.7h1.5v0.2h-4.7v-0.2H108.2z"/>
	<path d="M115.4,117.8l3.2-9.1h0.9l3.2,9.1h0.9v0.2h-4.2v-0.2h1l-0.8-2.6h-3l-0.9,2.6h1.4v0.2h-2.7v-0.2H115.4z M116.7,114.9h2.8
		l-1.4-4.2L116.7,114.9z"/>
	<path d="M127.3,117.8v-8.7h-0.9v-0.2h2.9l2.4,6.6l2.2-6.6h2.9v0.2h-0.9v8.7h0.9v0.2H133v-0.2h1v-8.6l-3,8.9h-0.3l-3.2-8.7v8.3h0.9
		v0.2h-2v-0.2L127.3,117.8L127.3,117.8z"/>
	<path d="M139.5,113.5c0-2.7,1.7-4.7,4.2-4.7s4.2,2,4.2,4.7s-1.6,4.7-4.2,4.7S139.5,116.1,139.5,113.5z M141.7,113.5
		c0,2.5,0.3,4.5,2,4.5s2-2,2-4.5s-0.5-4.5-2-4.5C142.1,109,141.7,110.9,141.7,113.5z"/>
	<path d="M152,117.8v-8.7h-1.3v-0.2h3.5l3.8,6v-5.8h-1.3v-0.2h2.9v0.2h-1.3v9h-0.4l-5.6-8.8v8.4h1.4v0.2h-3v-0.2L152,117.8
		L152,117.8z"/>
	<path d="M162.4,118.1v-0.2h1.1v-8.7h-1.1V109h3.9c2.9,0,4.6,1.9,4.6,4.6s-1.9,4.6-4.6,4.6h-3.9V118.1z M165.4,109.1v8.7h0.9
		c1.9,0,2.5-1.9,2.5-4.3s-0.7-4.3-2.5-4.3L165.4,109.1L165.4,109.1z"/>
	<path d="M109.6,132.9V130h0.2c0.4,1.2,1.3,2.7,2.9,2.7c1.2,0,1.9-0.6,1.9-1.7c0-2.3-4.9-1.5-4.9-5.1c0-1.5,1.3-2.4,2.7-2.4
		c0.7,0,1.4,0.2,1.8,0.7l0.9-0.7h0.2v2.8h-0.2c-0.5-1.5-1.4-2.5-2.6-2.5c-1,0-1.5,0.5-1.5,1.4c0,2.1,4.9,1.5,4.9,5
		c0,1.7-1.3,2.8-3.1,2.8c-0.9,0-1.6-0.3-2.1-0.8l-1,0.8h-0.1V132.9z"/>
	<path d="M119.9,132.5v-8.7h-1.1v-0.2h4.1v0.2h-1.1v4.3h3.3v-4.3H124v-0.2h4.1v0.2H127v8.7h1.1v0.2H124v-0.2h1.1v-4.2h-3.3v4.2h1.1
		v0.2h-4.1v-0.2H119.9z"/>
	<path d="M132.2,132.5v-8.7h-1.3v-0.2h4.7v0.2h-1.5v8.7h1.5v0.2h-4.7v-0.2H132.2z"/>
	<path d="M139.7,132.5v-8.7h-1.3v-0.2h3.5l3.8,6v-5.8h-1.3v-0.2h2.9v0.2H146v9h-0.4L140,124v8.4h1.4v0.2h-3v-0.2h1.3V132.5z"/>
	<path d="M153.6,128.1h-0.4v4.4h1.3c1.7,0,2.4-1,2.6-2.5h0.2v2.8h-7.1v-0.2h1.1v-8.7h-1.1v-0.2h7v2.5H157c-0.2-1.3-0.9-2.3-2.3-2.3
		h-1.4v4.1h0.4c0.7,0,1.2-0.5,1.4-1.3h0.2v3H155C154.8,128.7,154.3,128.1,153.6,128.1z"/>
</g>
</svg>
