<?xml version="1.0" encoding="utf-8"?>
<!-- Generator: Adobe Illustrator 22.1.0, SVG Export Plug-In . SVG Version: 6.00 Build 0)  -->
<svg version="1.1" id="Layer_1" xmlns="http://www.w3.org/2000/svg" xmlns:xlink="http://www.w3.org/1999/xlink" x="0px" y="0px"
	 width="260px" height="136px" viewBox="0 0 260 136" style="enable-background:new 0 0 260 136;" xml:space="preserve">
<path d="M87.8,92c-0.4,0-0.7-0.3-0.7-0.7V5.1c0-0.3,0.2-0.5,0.4-0.7c0.1,0,0.2-0.1,0.3-0.1c0.2,0,0.3,0.1,0.5,0.2L132,41.8
	l43.7-37.2c0.2-0.1,0.4-0.2,0.5-0.2c0.2,0,0.4,0.1,0.6,0.3c0.1,0.1,0.2,0.3,0.2,0.5s-0.1,0.4-0.3,0.5l-44.2,37.7
	c-0.1,0.1-0.3,0.2-0.5,0.2s-0.3-0.1-0.5-0.2l-43-36.6v84.5C88.5,91.7,88.2,92,87.8,92z M132,91.8c-0.4,0-0.7-0.3-0.7-0.7
	c0-0.4,0.3-0.7,0.7-0.7h43.5V24l-43,36.6c-0.1,0.1-0.3,0.2-0.5,0.2s-0.3-0.1-0.5-0.2L96.6,30.8c-0.2-0.1-0.2-0.3-0.3-0.5
	c0-0.2,0-0.4,0.2-0.5c0.1-0.2,0.3-0.3,0.6-0.3c0.1,0,0.3,0,0.5,0.2L132,59.1l43.7-37.2c0.1-0.1,0.3-0.2,0.5-0.2c0.1,0,0.2,0,0.3,0.1
	c0.3,0.1,0.4,0.4,0.4,0.7V91c0,0.4-0.3,0.7-0.7,0.7H132V91.8z"/>
<g>
	<path d="M69.5,132c-0.4-0.2-0.7-0.4-1-0.6c-0.4-0.3-0.6-0.4-0.7-0.4c-0.2,0-0.3,0.2-0.4,0.6l-0.1,0.6H67l-0.1-4.4h0.3
		c0.1,0.7,0.2,1.4,0.6,2s0.7,1.1,1.2,1.5s1,0.6,1.5,0.6c0.8,0,1.3-0.2,1.7-0.6s0.5-0.8,0.5-1.3s-0.1-0.8-0.4-1.1s-0.7-0.5-1.2-0.7
		l-2.1-0.9c-0.7-0.3-1.3-0.7-1.6-1.2c-0.4-0.5-0.5-1-0.5-1.7c0-0.9,0.3-1.6,0.8-2s1.2-0.6,2-0.6c0.6,0,1.3,0.3,2,0.8
		c0.1,0.1,0.2,0.1,0.3,0.2c0.1,0.1,0.2,0.1,0.3,0.1c0.2,0,0.3-0.1,0.3-0.3l0.1-0.5H73l0.1,3.6h-0.3c-0.1-0.7-0.4-1.3-0.7-1.8
		c-0.3-0.5-0.7-0.9-1.1-1.2c-0.4-0.3-0.9-0.4-1.3-0.4c-0.5,0-1,0.2-1.3,0.5s-0.5,0.8-0.5,1.4c0,0.4,0.1,0.7,0.3,1
		c0.2,0.2,0.5,0.4,1,0.6l2.7,1.1c0.6,0.3,1.1,0.6,1.4,1.1c0.3,0.5,0.5,1,0.5,1.5s-0.1,1-0.3,1.4c-0.2,0.4-0.6,0.8-1,1.1
		c-0.5,0.3-1,0.4-1.7,0.4C70.3,132.3,69.9,132.2,69.5,132z"/>
	<path d="M80,131.6h1.3c0.3,0,0.4-0.1,0.4-0.4v-8.4c0-0.1,0-0.2-0.1-0.3c-0.1-0.1-0.2-0.1-0.3-0.1h-0.5c-0.6,0-1.1,0.3-1.5,0.9
		c-0.3,0.4-0.5,0.9-0.5,1.4c-0.1,0.6-0.1,1-0.1,1.3h-0.4l0.1-4h8l0.1,4h-0.4c0-0.3,0-0.7-0.1-1.3c-0.1-0.6-0.3-1.1-0.5-1.4
		c-0.4-0.6-0.9-0.9-1.5-0.9h-0.5c-0.1,0-0.2,0-0.3,0.1c-0.1,0.1-0.1,0.2-0.1,0.3v8.4c0,0.3,0.1,0.4,0.4,0.4h1.3v0.4H80V131.6z"/>
	<path d="M93.2,131.6h1.3c0.3,0,0.4-0.1,0.4-0.4v-3.6l-2.7-4.5c-0.1-0.2-0.3-0.4-0.4-0.5s-0.3-0.1-0.4-0.1h-0.7V122H95v0.4h-0.8
		c-0.1,0-0.3,0-0.3,0.1c-0.1,0.1-0.1,0.1-0.1,0.3c0,0.1,0,0.2,0.1,0.3l2.2,3.7l1.4-2.7c0-0.1,0.1-0.2,0.2-0.4
		c0.1-0.2,0.1-0.4,0.1-0.5c0-0.2-0.1-0.4-0.2-0.6s-0.3-0.2-0.6-0.2h-0.4V122h3.5v0.4h-0.4c-0.3,0-0.5,0.1-0.7,0.3
		c-0.2,0.2-0.4,0.4-0.5,0.7l-2,3.8v3.9c0,0.3,0.1,0.4,0.4,0.4h1.3v0.4h-4.7v-0.3H93.2z"/>
	<path d="M103.9,131.6h1c0.3,0,0.4-0.1,0.4-0.4v-8.3c0-0.1,0-0.2-0.1-0.3s-0.2-0.1-0.3-0.1h-1V122h4.3v0.4H107c-0.1,0-0.2,0-0.3,0.1
		s-0.1,0.2-0.1,0.3v8.3c0,0.3,0.1,0.4,0.4,0.4h1.4c0.5,0,0.9-0.1,1.3-0.3s0.7-0.6,0.9-1c0.1-0.3,0.3-0.7,0.4-1s0.2-0.7,0.2-0.9
		s0.1-0.4,0.1-0.5h0.4l-0.1,4.2H104v-0.4H103.9z"/>
	<path d="M116.1,131.6h1c0.3,0,0.4-0.1,0.4-0.4v-8.3c0-0.1,0-0.2-0.1-0.3s-0.2-0.1-0.3-0.1h-1V122h7.8l0.1,3.5h-0.4
		c0-0.2,0-0.5-0.1-1s-0.2-0.8-0.5-1.2c-0.4-0.6-0.9-0.9-1.7-0.9h-2.2c-0.1,0-0.2,0-0.3,0.1s-0.1,0.2-0.1,0.3v3.8h1.1
		c0.5,0,0.8-0.2,1-0.7s0.3-1,0.3-1.6h0.4v5h-0.4c0-0.5-0.1-1.1-0.3-1.6s-0.6-0.7-1-0.7h-1.1v4.1c0,0.3,0.1,0.4,0.4,0.4h2.2
		c0.3,0,0.5-0.1,0.8-0.2c0.3-0.1,0.5-0.3,0.7-0.6s0.3-0.6,0.5-1s0.2-0.7,0.3-1.1s0.1-0.5,0.1-0.6h0.3l-0.2,3.9H116L116.1,131.6
		L116.1,131.6z"/>
	<path d="M135.3,131.6h1c0.3,0,0.4-0.1,0.4-0.4v-8.3c0-0.1,0-0.2-0.1-0.3s-0.2-0.1-0.3-0.1h-1V122h4.6c0.6,0,1.1,0.1,1.5,0.3
		c0.5,0.2,0.9,0.5,1.2,0.8c0.3,0.4,0.4,0.8,0.4,1.2c0,0.6-0.2,1.2-0.6,1.6c-0.4,0.4-0.9,0.7-1.5,0.8v0.1c0.4,0,0.8,0.1,1.1,0.4
		s0.7,0.5,0.9,0.9c0.2,0.4,0.4,0.8,0.4,1.2c0,0.6-0.1,1.1-0.4,1.5c-0.3,0.4-0.7,0.7-1.2,0.9s-1,0.3-1.6,0.3h-4.7L135.3,131.6
		L135.3,131.6z M139.8,126.6c0.8,0,1.3-0.2,1.5-0.6c0.3-0.4,0.4-0.9,0.4-1.6c0-0.6-0.2-1-0.5-1.4c-0.4-0.4-0.8-0.5-1.3-0.5h-1.6
		c-0.1,0-0.2,0-0.3,0.1s-0.1,0.2-0.1,0.3v3.7H139.8z M139.8,131.6c0.6,0,1-0.2,1.4-0.5s0.6-0.9,0.6-1.8s-0.2-1.4-0.6-1.8
		s-0.8-0.5-1.4-0.5h-1.9v4.2c0,0.3,0.1,0.4,0.4,0.4L139.8,131.6L139.8,131.6z"/>
	<path d="M154.2,132c-0.2-0.1-0.4-0.3-0.5-0.5c-0.3-0.5-0.4-1.3-0.4-2.5c0-0.6-0.1-1.1-0.3-1.6c-0.2-0.4-0.6-0.6-1-0.6h-1.5v4.3
		c0,0.1,0,0.2,0.1,0.3s0.2,0.1,0.3,0.1h1.2v0.4h-4.3v-0.4h1c0.3,0,0.4-0.1,0.4-0.4v-8.3c0-0.1,0-0.2-0.1-0.3s-0.2-0.1-0.3-0.1h-1
		V122h4.6c0.9,0,1.6,0.2,2.2,0.5c0.6,0.3,0.9,0.9,0.9,1.7c0,0.7-0.3,1.2-0.8,1.7c-0.5,0.4-1.1,0.7-1.9,0.7v0.1
		c0.5,0.1,1,0.3,1.3,0.7c0.3,0.4,0.6,1,0.7,2c0.1,0.5,0.1,0.9,0.2,1.2c0.1,0.2,0.1,0.4,0.2,0.5s0.2,0.1,0.4,0.1
		c0.4,0,0.6-0.5,0.6-1.5h0.4c0,0.6-0.1,1.2-0.3,1.7s-0.6,0.7-1.2,0.7C154.7,132.2,154.4,132.1,154.2,132z M151.7,126.4
		c0.8,0,1.3-0.2,1.7-0.6c0.3-0.4,0.5-0.9,0.5-1.6c0-0.6-0.2-1-0.5-1.3s-0.7-0.5-1.2-0.5h-1.5c-0.1,0-0.2,0-0.3,0.1s-0.1,0.2-0.1,0.3
		v3.5L151.7,126.4L151.7,126.4z"/>
	<path d="M160.3,131.6h0.5c0.6,0,1-0.3,1.2-1l3-8.5h0.3l3,8.9c0.1,0.2,0.2,0.4,0.3,0.5s0.3,0.1,0.5,0.1h0.8v0.4h-4.3v-0.4h0.9
		c0.1,0,0.3,0,0.4-0.1c0.1-0.1,0.1-0.2,0.1-0.2c0-0.1,0-0.2-0.1-0.3l-0.7-1.9h-3.3l-0.3,0.9c-0.1,0.4-0.2,0.6-0.2,0.8
		s0.1,0.4,0.2,0.5c0.1,0.2,0.3,0.2,0.5,0.2h0.9v0.4h-3.8v-0.3H160.3z M163.3,128.6h3l-1.5-4.3L163.3,128.6z"/>
	<path d="M176,123.6L176,123.6l-0.1,6.9c0,0.3,0.1,0.6,0.2,0.8c0.2,0.2,0.4,0.3,0.6,0.3h0.5v0.4H174v-0.4h0.5c0.3,0,0.5-0.1,0.6-0.3
		c0.2-0.2,0.2-0.5,0.2-0.8v-7.6c0-0.1,0-0.2-0.1-0.3c-0.1-0.1-0.1-0.1-0.3-0.1h-1V122h2.6l4.9,7.8v-6.2c0-0.3-0.1-0.6-0.2-0.8
		c-0.2-0.2-0.4-0.3-0.6-0.3h-0.5V122h3.3v0.4H183c-0.3,0-0.5,0.1-0.6,0.3c-0.2,0.2-0.3,0.5-0.3,0.8v8.7h-0.6L176,123.6z"/>
	<path d="M187.6,131.6h1c0.3,0,0.4-0.1,0.4-0.4v-8.3c0-0.1,0-0.2-0.1-0.3s-0.2-0.1-0.3-0.1h-1V122h5.1c0.8,0,1.5,0.2,2.1,0.6
		s1.2,1,1.5,1.7c0.4,0.7,0.6,1.6,0.6,2.5c0,1-0.2,1.8-0.6,2.6c-0.4,0.8-0.9,1.4-1.5,1.8c-0.6,0.4-1.4,0.7-2.1,0.7h-5.1L187.6,131.6
		L187.6,131.6z M192.7,131.6c0.7,0,1.2-0.2,1.6-0.7s0.7-1,0.9-1.7s0.3-1.4,0.3-2.2c0-1.3-0.2-2.3-0.7-3.2c-0.5-0.9-1.2-1.3-2.1-1.3
		h-2c-0.1,0-0.2,0-0.3,0.1s-0.1,0.2-0.1,0.3v8.3c0,0.3,0.1,0.4,0.4,0.4H192.7z"/>
</g>
</svg>
